# xmcd
#
# Track frame offsets: 
#        150
#        15542
#        31618
#        47810
#        65694
#        83082
#        94162
#        109768
#        131161
#        147066
#
# Disc length: 2152 seconds
#
# Revision: 0
# Processed by: cddbd v1.5.2PL0 Copyright (c) Steve Scherf et al.
# Submitted via: ExactAudioCopyFreeDBPlugin 1.0
#
DISCID=7e08660a
DTITLE=W.C. Beck and The Valiant Swains - Kanswayer
DYEAR=1900
DGENRE=Country
TTITLE0=Northern Lakes Girl
TTITLE1=Poor Man
TTITLE2=Halfway
TTITLE3=Bye and Bye
TTITLE4=Lullabies
TTITLE5=Turkey Red
TTITLE6=Wal-Mart Bues
TTITLE7=Atchison Train
TTITLE8=Hungover
TTITLE9=Gospel
EXTD=
EXTT0=
EXTT1=
EXTT2=
EXTT3=
EXTT4=
EXTT5=
EXTT6=
EXTT7=
EXTT8=
EXTT9=
PLAYORDER=
